# xmcd
#
# Track frame offsets: 
#        150
#        24288
#        39728
#        50193
#        68763
#        80291
#        90258
#        106235
#        117335
#        135211
#        147918
#        156038
#        167373
#        178736
#        187603
#        197520
#
# Disc length: 2803 seconds
#
# Revision: 2
# Processed by: cddbd v1.5.1PL2 Copyright (c) Steve Scherf et al.
# Submitted via: ExactAudioCopy v0.95b4
#
DISCID=bf0af110
DTITLE=Jack Elliot and Derrol Adams - Cow Boy Songs
DYEAR=1996
DGENRE=Country
TTITLE0=Death Of Mr. Garfield
TTITLE1=Hard Travelling
TTITLE2=Wreck On The Highway
TTITLE3=Mule Skinner's Blues
TTITLE4=Death Of John Henry
TTITLE5=Portland Town
TTITLE6=How Long Blues
TTITLE7=Precious Jewel
TTITLE8=900 Miles
TTITLE9=Salty Dog Blues
TTITLE10=I'm Gonna Walk The Street In Glory
TTITLE11=Freight Train
TTITLE12=I'm Sad And I'm Lonely
TTITLE13=Ain't It A Shame
TTITLE14=The Cuckoo
TTITLE15=Stern Old Bachelor
EXTD=Promo Sound AG
EXTT0=
EXTT1=
EXTT2=
EXTT3=
EXTT4=
EXTT5=
EXTT6=
EXTT7=
EXTT8=
EXTT9=
EXTT10=
EXTT11=
EXTT12=
EXTT13=
EXTT14=
EXTT15=
PLAYORDER=
